<svg xmlns="http://www.w3.org/2000/svg" width="265.4304" height="251.2288" viewBox="0 0 265.4304 251.2288"><title>like-active</title><path d="M133.2171,32.834c2.1858-3.0362,4.167-6.3257,6.66-9.166,19.1248-21.7891,43.2208-27.58,70.73-21.2585,29.6758,6.82,51.11,32.0159,54.1286,62.2386,3.7717,37.7628-8.0471,70.8464-29.806,100.8943-26.2788,36.29-60.5145,63.47-99.3789,85.1276a6.5314,6.5314,0,0,1-5.4178-.0607C89.7973,228.0417,54.4277,199.67,27.8854,161.3587,9.9639,135.4908-.2612,106.95.0051,75.1229.3531,33.53,27.1388,3.6875,68.4953.3713c25.96-2.0816,47.3154,7.4655,62.0509,29.7864a23.208,23.208,0,0,0,1.4692,2.0285C132.2092,32.42,132.5842,32.5042,133.2171,32.834Z"/></svg>