<svg xmlns="http://www.w3.org/2000/svg" width="265.4304" height="251.2288" viewBox="0 0 265.4304 251.2288"><title>like-inactive</title><path d="M190.5731,2A87.8887,87.8887,0,0,1,210.159,4.3588c28.4941,6.5482,49.6271,30.8565,52.5866,60.4881,3.4771,34.8137-6.1514,67.3679-29.4358,99.5225-24.1267,33.3181-56.4225,60.9758-98.7327,84.5536a3.6657,3.6657,0,0,1-1.6244.3058,4.1073,4.1073,0,0,1-1.8431-.3648C86.9732,224.17,53.746,195.1741,29.5294,160.22,11.0167,133.4987,1.7562,104.8736,2.005,75.14,2.1721,55.16,8.5159,37.7319,20.35,24.74,32.2449,11.6823,48.9483,3.9451,68.655,2.3649c2.253-.1806,4.4969-.2722,6.6694-.2722,22.7583,0,40.776,9.8131,53.5525,29.1666a25.1226,25.1226,0,0,0,1.598,2.2025,3.3725,3.3725,0,0,0,1.3377.9184c.1344.06.2936.13.48.2273l1.5359.8006,1.0119-1.4055c.7049-.9793,1.394-1.9916,2.06-2.9705a62.273,62.273,0,0,1,4.48-6.0448C154.7684,9.7341,171.3193,2,190.5731,2m0-2c-19.25,0-36.37,7.3461-50.696,23.668-2.493,2.84-4.4743,6.13-6.66,9.166-.6328-.33-1.0078-.4137-1.2017-.6478a23.1861,23.1861,0,0,1-1.4691-2.0285C117.1239,9.8259,98.2092.0927,75.3243.0927q-3.3582,0-6.8291.2786C27.1387,3.6875.353,33.53.0051,75.1229c-.2664,31.8274,9.9587,60.3679,27.88,86.2357,26.5423,38.3112,61.912,66.6831,102.2477,89.2507a6.04,6.04,0,0,0,2.82.62,5.5489,5.5489,0,0,0,2.598-.5588c38.8644-21.6576,73.1-48.8376,99.3789-85.1276,21.7589-30.0479,33.5778-63.1315,29.8061-100.8943C261.7171,34.4255,240.2829,9.2294,210.607,2.41A89.49,89.49,0,0,0,190.5731,0Z"/></svg>