<svg xmlns="http://www.w3.org/2000/svg" width="173.7524" height="43.2666" viewBox="0 0 173.7524 43.2666"><title>the-proper-pour-logo</title><path d="M6.4087,18.0664V1.9165H0V0H15.3809V1.9165H8.9722v16.15Z"/><path d="M17.92,18.0664V0h2.5635V7.6172h8.5937V0h2.5635V18.0664H29.0771V9.5337H20.4834v8.5327Z"/><path d="M36.2915,18.0664V0H46.3867V1.9165H38.855V7.7148h6.311V9.6069H38.855V16.15h8.0566v1.9165Z"/><path d="M5.5054,36.979v6.0874H1.28V24.854H7.7051a10.5979,10.5979,0,0,1,3.3066.4561,6.354,6.354,0,0,1,2.2749,1.2563,4.9023,4.9023,0,0,1,1.3189,1.8877,6.4,6.4,0,0,1,.4248,2.35,6.91,6.91,0,0,1-.4375,2.5,5.015,5.015,0,0,1-1.3374,1.95,6.2955,6.2955,0,0,1-2.2813,1.2686,10.4455,10.4455,0,0,1-3.269.4565Zm0-3.1875h2.2a3.1,3.1,0,0,0,2.375-.7876,3.1268,3.1268,0,0,0,.7251-2.2,3.29,3.29,0,0,0-.1875-1.1372,2.3128,2.3128,0,0,0-.5689-.8813,2.5558,2.5558,0,0,0-.9624-.5689,4.2584,4.2584,0,0,0-1.3813-.2h-2.2Z"/><path d="M21.4551,36.3291v6.7373H17.23V24.854h5.9248a12.1565,12.1565,0,0,1,3.3691.4063,6.3272,6.3272,0,0,1,2.2749,1.1313A4.2878,4.2878,0,0,1,30.08,28.104a5.674,5.674,0,0,1,.4,2.15,5.7738,5.7738,0,0,1-.2373,1.6748,5.079,5.079,0,0,1-.7066,1.4566,5.47,5.47,0,0,1-1.15,1.1938,6.1181,6.1181,0,0,1-1.5688.8623,3.9948,3.9948,0,0,1,.7939.5249,3.122,3.122,0,0,1,.6436.7627l3.875,6.3374H28.3052a1.6236,1.6236,0,0,1-1.5254-.8L23.7549,36.979a1.2733,1.2733,0,0,0-.4688-.5,1.5672,1.5672,0,0,0-.7563-.15Zm0-2.9126h1.7a4.3422,4.3422,0,0,0,1.4687-.2187,2.6615,2.6615,0,0,0,.9942-.6065,2.3187,2.3187,0,0,0,.5625-.9062,3.4906,3.4906,0,0,0,.1748-1.1187,2.3478,2.3478,0,0,0-.7813-1.875,3.6359,3.6359,0,0,0-2.4189-.6748h-1.7Z"/><path d="M51.2051,33.9541a9.7892,9.7892,0,0,1-.6812,3.6748,8.6858,8.6858,0,0,1-4.9,4.9248,10.87,10.87,0,0,1-7.7436,0,8.6923,8.6923,0,0,1-4.9185-4.9248,10.2484,10.2484,0,0,1,0-7.35,8.737,8.737,0,0,1,1.9248-2.95A8.9009,8.9009,0,0,1,37.88,25.3662a10.1934,10.1934,0,0,1,3.875-.7124,10.0621,10.0621,0,0,1,3.8686.7188,8.9352,8.9352,0,0,1,2.9815,1.9687,8.7957,8.7957,0,0,1,1.9189,2.95A9.7549,9.7549,0,0,1,51.2051,33.9541Zm-4.3252,0a7.8745,7.8745,0,0,0-.35-2.4316,5.15,5.15,0,0,0-1.0059-1.8311,4.3394,4.3394,0,0,0-1.6064-1.15,5.5306,5.5306,0,0,0-2.1626-.4,5.61,5.61,0,0,0-2.1812.4,4.3253,4.3253,0,0,0-1.6123,1.15,5.1429,5.1429,0,0,0-1.0063,1.8311,8.66,8.66,0,0,0,0,4.875,5.1405,5.1405,0,0,0,1.0063,1.8315,4.262,4.262,0,0,0,1.6123,1.1436,5.6836,5.6836,0,0,0,2.1812.394,5.6028,5.6028,0,0,0,2.1626-.394,4.2754,4.2754,0,0,0,1.6064-1.1436A5.1475,5.1475,0,0,0,46.53,36.3975,7.9146,7.9146,0,0,0,46.88,33.9541Z"/><path d="M57.4546,36.979v6.0874H53.23V24.854h6.4248a10.5979,10.5979,0,0,1,3.3066.4561,6.354,6.354,0,0,1,2.2749,1.2563,4.9023,4.9023,0,0,1,1.3189,1.8877,6.4,6.4,0,0,1,.4248,2.35,6.91,6.91,0,0,1-.4375,2.5,5.015,5.015,0,0,1-1.3374,1.95,6.2947,6.2947,0,0,1-2.2813,1.2686,10.4455,10.4455,0,0,1-3.269.4565Zm0-3.1875h2.2a2.6811,2.6811,0,0,0,3.1-2.9878,3.29,3.29,0,0,0-.1875-1.1372,2.3128,2.3128,0,0,0-.5689-.8813,2.5558,2.5558,0,0,0-.9624-.5689,4.2584,4.2584,0,0,0-1.3813-.2h-2.2Z"/><path d="M80.9043,24.854v3.25H73.4292v4.25h5.7251v3.125H73.4292v4.3374h7.4751v3.25H69.1792V24.854Z"/><path d="M87.5288,36.3291v6.7373H83.3037V24.854h5.9248a12.1573,12.1573,0,0,1,3.3692.4063,6.3272,6.3272,0,0,1,2.2749,1.1313,4.2875,4.2875,0,0,1,1.2812,1.7124,5.674,5.674,0,0,1,.4,2.15,5.7738,5.7738,0,0,1-.2373,1.6748,5.0787,5.0787,0,0,1-.7065,1.4566,5.47,5.47,0,0,1-1.15,1.1938,6.1188,6.1188,0,0,1-1.5689.8623,3.9955,3.9955,0,0,1,.794.5249,3.1217,3.1217,0,0,1,.6435.7627l3.875,6.3374H94.3789a1.6236,1.6236,0,0,1-1.5254-.8L89.8286,36.979a1.2731,1.2731,0,0,0-.4687-.5,1.5677,1.5677,0,0,0-.7564-.15Zm0-2.9126h1.7a4.3428,4.3428,0,0,0,1.4688-.2187,2.6611,2.6611,0,0,0,.9941-.6065,2.3187,2.3187,0,0,0,.5625-.9062,3.4906,3.4906,0,0,0,.1748-1.1187,2.3477,2.3477,0,0,0-.7812-1.875,3.6362,3.6362,0,0,0-2.419-.6748h-1.7Z"/><path d="M108.9785,36.979v6.0874h-4.2251V24.854h6.4248a10.5986,10.5986,0,0,1,3.3067.4561,6.354,6.354,0,0,1,2.2749,1.2563,4.9021,4.9021,0,0,1,1.3188,1.8877,6.4,6.4,0,0,1,.4248,2.35,6.91,6.91,0,0,1-.4375,2.5,5.015,5.015,0,0,1-1.3374,1.95,6.295,6.295,0,0,1-2.2812,1.2686,10.4462,10.4462,0,0,1-3.2691.4565Zm0-3.1875h2.2a2.6811,2.6811,0,0,0,3.1-2.9878,3.29,3.29,0,0,0-.1875-1.1372,2.3126,2.3126,0,0,0-.5688-.8813,2.5558,2.5558,0,0,0-.9624-.5689,4.259,4.259,0,0,0-1.3814-.2h-2.2Z"/><path d="M138.6782,33.9541a9.7891,9.7891,0,0,1-.6811,3.6748,8.6866,8.6866,0,0,1-4.9,4.9248,10.8707,10.8707,0,0,1-7.7437,0,8.6925,8.6925,0,0,1-4.9184-4.9248,10.247,10.247,0,0,1,0-7.35,8.737,8.737,0,0,1,1.9248-2.95,8.9,8.9,0,0,1,2.9936-1.9629,10.1934,10.1934,0,0,1,3.875-.7124,10.0626,10.0626,0,0,1,3.8687.7188,8.9348,8.9348,0,0,1,2.9814,1.9687,8.796,8.796,0,0,1,1.919,2.95A9.7548,9.7548,0,0,1,138.6782,33.9541Zm-4.3252,0a7.8745,7.8745,0,0,0-.35-2.4316,5.15,5.15,0,0,0-1.0058-1.8311,4.34,4.34,0,0,0-1.6065-1.15,5.5306,5.5306,0,0,0-2.1626-.4,5.61,5.61,0,0,0-2.1811.4,4.3253,4.3253,0,0,0-1.6123,1.15,5.1431,5.1431,0,0,0-1.0064,1.8311,8.66,8.66,0,0,0,0,4.875,5.1407,5.1407,0,0,0,1.0064,1.8315,4.262,4.262,0,0,0,1.6123,1.1436,5.683,5.683,0,0,0,2.1811.394,5.6028,5.6028,0,0,0,2.1626-.394,4.2757,4.2757,0,0,0,1.6065-1.1436,5.1474,5.1474,0,0,0,1.0058-1.8315A7.9146,7.9146,0,0,0,134.353,33.9541Z"/><path d="M148.2778,39.729a3.8858,3.8858,0,0,0,1.5186-.2812,3.0789,3.0789,0,0,0,1.1313-.8062,3.5713,3.5713,0,0,0,.7061-1.2812,5.5939,5.5939,0,0,0,.2436-1.7188V24.854h4.2251V35.6416a8.4262,8.4262,0,0,1-.5434,3.0747,6.895,6.895,0,0,1-1.5567,2.4126,7.0223,7.0223,0,0,1-2.4624,1.5752,9.779,9.779,0,0,1-6.5376,0,7.0268,7.0268,0,0,1-2.4624-1.5752,6.8177,6.8177,0,0,1-1.55-2.4126,8.508,8.508,0,0,1-.5376-3.0747V24.854h4.2251V35.6289a5.5915,5.5915,0,0,0,.2437,1.7188,3.6307,3.6307,0,0,0,.706,1.2876,3.0445,3.0445,0,0,0,1.1314.8125A3.8861,3.8861,0,0,0,148.2778,39.729Z"/><path d="M163.0776,36.3291v6.7373h-4.2251V24.854h5.9248a12.1573,12.1573,0,0,1,3.3692.4063,6.3272,6.3272,0,0,1,2.2749,1.1313,4.2875,4.2875,0,0,1,1.2812,1.7124,5.674,5.674,0,0,1,.4,2.15,5.7738,5.7738,0,0,1-.2373,1.6748,5.0787,5.0787,0,0,1-.7065,1.4566,5.47,5.47,0,0,1-1.15,1.1938,6.1188,6.1188,0,0,1-1.5689.8623,3.9955,3.9955,0,0,1,.794.5249,3.1217,3.1217,0,0,1,.6435.7627l3.875,6.3374h-3.8247a1.6236,1.6236,0,0,1-1.5254-.8l-3.0249-5.2876a1.2731,1.2731,0,0,0-.4687-.5,1.5677,1.5677,0,0,0-.7564-.15Zm0-2.9126h1.7a4.3428,4.3428,0,0,0,1.4688-.2187,2.6611,2.6611,0,0,0,.9941-.6065,2.3187,2.3187,0,0,0,.5625-.9062,3.4906,3.4906,0,0,0,.1748-1.1187,2.3477,2.3477,0,0,0-.7812-1.875,3.6362,3.6362,0,0,0-2.419-.6748h-1.7Z"/></svg>